<svg width="72" height="27" viewBox="0 0 72 27" fill="none" xmlns="http://www.w3.org/2000/svg">
<path fill-rule="evenodd" clip-rule="evenodd" d="M12.5293 24.4606C12.5583 24.4254 12.5907 24.386 12.67 24.4201C12.6783 24.4918 12.6859 24.564 12.6936 24.6365C12.7336 25.017 12.7745 25.4062 12.9301 25.772C13.0498 26.0534 13.2178 26.2093 13.56 26.1963C14.0706 26.1771 14.5819 26.1809 15.0933 26.1847C15.3043 26.1863 15.5153 26.1879 15.7262 26.1878C15.9935 26.1878 16.2608 26.1875 16.5282 26.1871C17.2491 26.1861 17.9701 26.1851 18.6909 26.1913C18.9174 26.1933 19.0287 26.1601 19.0313 25.8847C19.034 25.5944 18.9497 25.4912 18.667 25.529C18.53 25.5472 18.3883 25.5393 18.2494 25.5312C17.3245 25.4776 16.8517 25.0633 16.7413 24.1863C16.6953 23.8219 16.6689 23.4525 16.6687 23.0852C16.6646 15.5413 16.6625 7.99749 16.6748 0.453804C16.6754 0.076163 16.5718 -0.00353244 16.2128 0.000117733C14.3252 0.019129 12.4373 0.0150226 10.5497 0.00331162C10.2705 0.00148653 10.1849 0.0703835 10.1821 0.361333C10.1791 0.660504 10.3257 0.659986 10.5181 0.659306C10.5325 0.659255 10.5473 0.659203 10.5622 0.659278C11.7258 0.665057 12.3139 1.16026 12.5099 2.30976C12.5587 2.59661 12.5803 2.89136 12.5812 3.18246C12.5874 5.34884 12.5862 7.51506 12.5837 9.68144C12.5836 9.70344 12.5855 9.72608 12.5873 9.74917C12.5945 9.83751 12.6022 9.93253 12.5079 10.0238C12.0412 9.68022 11.5459 9.37954 11.0128 9.14973C8.95223 8.26076 6.84187 8.02213 4.75813 8.96692C2.55281 9.96691 1.21319 11.7829 0.494319 14.0679C0.0760583 15.3978 -0.0384121 16.771 0.0105815 18.1681C0.0523168 19.359 0.191132 20.5252 0.57794 21.6528C1.20079 23.4678 2.28002 24.911 4.00901 25.7971C5.36873 26.494 6.82902 26.6741 8.32332 26.5017C9.94692 26.3144 11.4276 25.7798 12.5238 24.4672L12.5293 24.4606ZM12.5851 15.4963C12.5852 15.8984 12.5853 16.3144 12.5853 16.7486C12.5728 17.291 12.5769 17.8863 12.5813 18.5128C12.5875 19.4188 12.5943 20.3902 12.5519 21.3615C12.4711 23.2131 10.9945 24.9779 9.17632 25.2698C7.92835 25.4701 6.93487 24.9206 6.14114 23.9799C5.05738 22.6957 4.52148 21.1681 4.29223 19.5308C4.01884 17.5777 4.06057 15.627 4.55973 13.707C4.84069 12.6261 5.265 11.6128 6.05858 10.7912C7.19012 9.61984 8.55589 9.4025 10.0402 9.86288C10.9687 10.1508 11.7571 10.709 12.4176 11.4416C12.5629 11.6026 12.5877 11.764 12.5873 11.9596C12.5846 13.0922 12.5849 14.2249 12.5851 15.4963Z" fill="#242424"/>
<path d="M58.0036 17.7136C57.9139 17.804 57.8209 17.8977 57.6371 17.9414V17.3802C57.6368 13.2374 57.6365 9.09444 57.6363 4.95165L57.6362 4.16493C57.636 2.89745 57.6357 1.62996 57.6385 0.362471L57.6385 0.338191C57.6395 0.146343 57.6402 0.00011209 57.3554 0.00186397C55.3782 0.0140312 53.4011 0.0122061 51.424 0.00612249C51.2091 0.00536204 51.1501 0.074259 51.1342 0.28825C51.1113 0.602317 51.2313 0.665739 51.5215 0.667108C52.8099 0.673039 53.4793 1.3579 53.4976 2.65508C53.498 2.69341 53.498 2.73166 53.4979 2.76988L53.4979 6.27014C53.4978 11.6555 53.4977 17.0408 53.4991 22.4262C53.4991 22.8626 53.4374 23.2898 53.3261 23.7085C53.0498 24.7473 52.4755 25.4598 51.323 25.5344C51.1068 25.5484 51.1239 25.6814 51.1407 25.8108C51.147 25.8597 51.1532 25.9081 51.1468 25.9494C51.1123 26.1698 51.2558 26.1902 51.429 26.19C54.2299 26.1873 57.0307 26.1852 59.8317 26.1928C60.0707 26.1935 60.1455 26.112 60.1358 25.8848C60.135 25.8672 60.1346 25.8497 60.1341 25.8326C60.1292 25.6543 60.1252 25.5075 59.8482 25.5245C59.6105 25.5391 59.377 25.4531 59.1547 25.354C58.2967 24.9716 57.9598 24.2157 57.7851 23.3687C57.6072 22.5061 57.6205 21.6336 57.6338 20.761C57.6399 20.3607 57.646 19.9604 57.6336 19.561C57.6261 19.3186 57.707 19.1534 57.8757 18.9961C57.9622 18.9155 58.0489 18.835 58.1356 18.7544C58.6341 18.2912 59.1328 17.8277 59.6095 17.3426C59.8356 17.1125 59.9365 17.0904 60.1207 17.3812C60.7112 18.314 61.3085 19.2423 61.9059 20.1706C62.3742 20.8984 62.8426 21.6263 63.3077 22.3563C63.6349 22.87 63.936 23.3972 64.0646 24.0104C64.1607 24.4676 63.9919 24.8095 63.6828 25.1039C63.4484 25.3271 63.1598 25.4805 62.8396 25.51C62.5594 25.5359 62.5758 25.6917 62.5919 25.8461C62.597 25.8942 62.602 25.9422 62.598 25.9861C62.5784 26.2029 62.7193 26.1954 62.848 26.1886C62.8582 26.188 62.8683 26.1875 62.8782 26.1871C62.8901 26.1865 62.9017 26.1862 62.913 26.1862C63.909 26.1869 64.905 26.1871 65.9011 26.1872H65.9039C67.8347 26.1875 69.7654 26.1878 71.696 26.1923C71.9304 26.1929 72.0099 26.1195 71.999 25.8868C71.9982 25.8684 71.9976 25.8501 71.997 25.8322C71.9912 25.6523 71.9863 25.5016 71.7137 25.5268C71.4848 25.5477 71.262 25.4769 71.0446 25.4071C69.8761 25.0315 69.1102 24.168 68.4948 23.1739C67.4038 21.4116 66.3254 19.6414 65.2471 17.8711C64.5277 16.6902 63.8082 15.509 63.0851 14.3305C62.947 14.1052 62.9949 13.984 63.1645 13.8182C63.7912 13.2054 64.4124 12.5863 65.0211 11.9554C66.6261 10.2923 68.5914 9.46083 70.8793 9.38144C71.1391 9.37231 71.1881 9.28851 71.1938 9.04958C71.2003 8.77901 71.066 8.77536 70.8663 8.77551C69.5192 8.77742 68.1722 8.77715 66.8251 8.77687C65.8148 8.77667 64.8046 8.77646 63.7943 8.77718C63.77 8.7772 63.7448 8.7758 63.7196 8.77439C63.5757 8.76634 63.4306 8.75822 63.4317 9.01672C63.4327 9.25444 63.4453 9.40973 63.7453 9.38509C63.8852 9.37369 64.034 9.41709 64.1739 9.45788L64.1908 9.46281C64.8936 9.66737 65.0906 10.1813 64.7121 10.8135C64.5287 11.1198 64.3213 11.4082 64.068 11.6611L63.3698 12.358C61.5884 14.1362 59.807 15.9143 58.0251 17.692L58.0036 17.7136Z" fill="#242424"/>
<path d="M31.8525 24.3138C31.2463 24.9594 30.6168 25.5115 29.8468 25.852C27.8057 26.7547 25.741 26.8867 23.6936 25.8896C22.2924 25.2071 21.5598 23.9884 21.2153 22.5088C21.0594 21.8391 21.0115 21.1545 21.0124 20.4659C21.0157 17.8917 21.0177 15.3175 21.0101 12.7433C21.0081 12.0665 20.9154 11.4001 20.6501 10.7686C20.3377 10.0249 19.8226 9.53148 19.0005 9.41497L18.9675 9.41045C18.7935 9.38688 18.6387 9.36591 18.6468 9.09041C18.6545 8.83384 18.7281 8.77193 18.9725 8.773C20.9111 8.78121 22.8496 8.78289 24.7879 8.76904C25.0882 8.76692 25.1012 8.90243 25.1009 9.1368C25.0965 13.1383 25.0925 17.1397 25.1032 21.141C25.1064 22.3334 25.4899 23.3799 26.3646 24.2281C27.5715 25.3983 29.7074 25.2978 30.7836 24.0114C31.5303 23.1189 31.9074 22.1139 31.8958 20.9316C31.8803 19.3398 31.8823 17.748 31.8844 16.156V16.1555C31.8858 15.0587 31.8872 13.962 31.8829 12.8653C31.88 12.1132 31.788 11.3681 31.4775 10.67C31.1597 9.95535 30.6328 9.51216 29.8438 9.41087L29.8234 9.40831C29.6595 9.38783 29.5088 9.36902 29.5193 9.10638C29.5299 8.83946 29.6085 8.76874 29.8712 8.77072C31.0422 8.7799 32.2134 8.77869 33.3846 8.77748L33.3861 8.77748C33.7855 8.77706 34.185 8.77665 34.5844 8.77665C34.6884 8.77665 34.7927 8.77896 34.897 8.78127C35.1355 8.78655 35.3741 8.79183 35.6099 8.7695C35.9322 8.73893 35.9789 8.87338 35.9784 9.15733C35.9707 13.6557 35.9716 18.1541 35.9754 22.6526C35.9757 23.0967 35.9952 23.5416 36.0255 23.9849C36.0952 25.0039 36.5582 25.457 37.5878 25.5285C37.7266 25.5382 37.8675 25.543 38.0056 25.5303C38.2538 25.5075 38.393 25.5385 38.3923 25.8616C38.3915 26.1916 38.2353 26.1931 37.9958 26.1924L37.4273 26.1903C35.8811 26.1847 34.3347 26.179 32.7887 26.198C32.4073 26.2027 32.2404 26.0284 32.1184 25.7179C32.0084 25.4376 31.9707 25.1444 31.9307 24.8329C31.9092 24.6654 31.887 24.4926 31.8525 24.3138Z" fill="#242424"/>
<path d="M41.6609 12.5262C41.2419 10.8403 42.016 9.27862 43.7843 8.39133C43.1493 8.40121 42.6133 8.47984 42.0902 8.63193C38.2382 9.75162 37.5006 14.0546 39.3228 16.5464C40.1698 17.7047 41.3541 18.3999 42.6112 18.9917C42.7086 19.0376 42.806 19.0833 42.9035 19.1289C43.8383 19.567 44.7718 20.0044 45.6234 20.6004C46.6658 21.33 47.3487 22.2189 47.1026 23.6046C46.8916 24.7917 46.3776 25.7401 45.2535 26.2688C45.1022 26.3399 44.9424 26.3929 44.7826 26.4459C44.709 26.4704 44.6354 26.4948 44.5626 26.521C45.0238 26.5312 45.4741 26.4997 45.9166 26.4224C47.4106 26.1617 48.6658 25.496 49.5223 24.1914C50.0582 23.3748 50.2973 22.4562 50.3652 21.4933C50.4666 20.0555 50.0986 18.7825 49.0623 17.7288C48.1971 16.8491 47.134 16.2982 46.0425 15.7867C45.7524 15.6508 45.4579 15.5241 45.1634 15.3973C44.4698 15.0989 43.7762 14.8004 43.1406 14.3817C42.4486 13.9261 41.8731 13.3796 41.6609 12.5262Z" fill="#242424"/>
</svg>
